<svg width="24" height="24" viewBox="0 0 24 24" fill="none" xmlns="http://www.w3.org/2000/svg">
<mask id="mask0_22_381" style="mask-type:alpha" maskUnits="userSpaceOnUse" x="0" y="0" width="24" height="24">
<rect width="24" height="24" fill="#D9D9D9"/>
</mask>
<g mask="url(#mask0_22_381)">
<path d="M12 22.625C11.8333 22.625 11.675 22.6 11.525 22.55C11.375 22.5 11.2333 22.425 11.1 22.325L4.575 17.425C4.375 17.275 4.22917 17.0833 4.1375 16.85C4.04583 16.6167 4 16.375 4 16.125V3.5C4 3.08333 4.14583 2.72917 4.4375 2.4375C4.72917 2.14583 5.08333 2 5.5 2H18.5C18.9167 2 19.2708 2.14583 19.5625 2.4375C19.8542 2.72917 20 3.08333 20 3.5V16.125C20 16.375 19.9542 16.6167 19.8625 16.85C19.7708 17.0833 19.625 17.275 19.425 17.425L12.9 22.325C12.7667 22.425 12.625 22.5 12.475 22.55C12.325 22.6 12.1667 22.625 12 22.625ZM12 21.125L18.5 16.125V3.5H5.5V16.125L12 21.125ZM10.95 14.7C11.05 14.7 11.1417 14.6833 11.225 14.65C11.3083 14.6167 11.3917 14.5583 11.475 14.475L16.075 9.875C16.225 9.725 16.2958 9.55 16.2875 9.35C16.2792 9.15 16.2 8.975 16.05 8.825C15.9 8.675 15.725 8.6 15.525 8.6C15.325 8.6 15.15 8.675 15 8.825L10.925 12.9L8.975 10.95C8.825 10.8 8.65 10.725 8.45 10.725C8.25 10.725 8.075 10.8 7.925 10.95C7.775 11.1 7.7 11.275 7.7 11.475C7.7 11.675 7.775 11.85 7.925 12L10.425 14.475C10.5083 14.5583 10.5917 14.6167 10.675 14.65C10.7583 14.6833 10.85 14.7 10.95 14.7Z" fill="#F43F5E"/>
</g>
</svg>
