<svg width="24" height="24" viewBox="0 0 24 24" fill="none" xmlns="http://www.w3.org/2000/svg">
<path d="M10.1198 11.3648C10.1198 11.3648 11.9651 11.2317 11.9651 9.12904C11.9651 7.02622 10.4554 6 8.543 6H2.25V17.7509H8.543C8.543 17.7509 12.3846 17.8688 12.3846 14.2825C12.3846 14.2825 12.5521 11.3648 10.1198 11.3648ZM8.09003 8.08858H8.543C8.543 8.08858 9.3984 8.08858 9.3984 9.31121C9.3984 10.5337 8.89533 10.7109 8.32472 10.7109H5.02277V8.08858H8.09003ZM8.36517 15.6624H5.02277V12.5221H8.543C8.543 12.5221 9.81794 12.5058 9.81794 14.1359C9.81794 15.5103 8.86568 15.652 8.36517 15.6624ZM17.5081 8.98977C12.8574 8.98977 12.8615 13.5048 12.8615 13.5048C12.8615 13.5048 12.5424 17.9967 17.5081 17.9967C17.5081 17.9967 21.6462 18.2264 21.6462 14.8719H19.5181C19.5181 14.8719 19.589 16.1352 17.5791 16.1352C17.5791 16.1352 15.4506 16.2738 15.4506 14.0908H21.7172C21.7172 14.0908 22.4028 8.98977 17.5081 8.98977ZM15.4273 12.5221C15.4273 12.5221 15.6871 10.7109 17.5554 10.7109C19.4233 10.7109 19.3999 12.5221 19.3999 12.5221H15.4273ZM19.8957 8.13931H14.9062V6.69228H19.8957V8.13931Z" fill="white"/>
</svg>
