<svg width="24" height="24" viewBox="0 0 24 24" fill="none" xmlns="http://www.w3.org/2000/svg">
<mask id="mask0_22_382" style="mask-type:alpha" maskUnits="userSpaceOnUse" x="0" y="0" width="24" height="24">
<rect width="24" height="24" fill="#D9D9D9"/>
</mask>
<g mask="url(#mask0_22_382)">
<path d="M4.52499 19.45C4.39165 19.3 4.32082 19.125 4.31249 18.925C4.30415 18.725 4.37499 18.55 4.52499 18.4L16.425 6.5H9.84999C9.63332 6.5 9.45415 6.42917 9.31249 6.2875C9.17082 6.14583 9.09999 5.96667 9.09999 5.75C9.09999 5.53333 9.17082 5.35417 9.31249 5.2125C9.45415 5.07083 9.63332 5 9.84999 5H18.25C18.4667 5 18.6458 5.07083 18.7875 5.2125C18.9292 5.35417 19 5.53333 19 5.75V14.15C19 14.3667 18.9292 14.5458 18.7875 14.6875C18.6458 14.8292 18.4667 14.9 18.25 14.9C18.0333 14.9 17.8542 14.8292 17.7125 14.6875C17.5708 14.5458 17.5 14.3667 17.5 14.15V7.55L5.57499 19.475C5.44165 19.6083 5.27082 19.675 5.06249 19.675C4.85415 19.675 4.67499 19.6 4.52499 19.45Z" fill="#F43F5E"/>
</g>
</svg>
