<svg width="24" height="24" viewBox="0 0 24 24" fill="none" xmlns="http://www.w3.org/2000/svg">
<mask id="mask0_33_656" style="mask-type:alpha" maskUnits="userSpaceOnUse" x="0" y="0" width="24" height="24">
<rect width="24" height="24" fill="#D9D9D9"/>
</mask>
<g mask="url(#mask0_33_656)">
<path d="M4.525 19.45C4.39167 19.3 4.32084 19.125 4.3125 18.925C4.30417 18.725 4.375 18.55 4.525 18.4L16.425 6.5H9.85C9.63334 6.5 9.45417 6.42917 9.3125 6.2875C9.17084 6.14583 9.1 5.96667 9.1 5.75C9.1 5.53333 9.17084 5.35417 9.3125 5.2125C9.45417 5.07083 9.63334 5 9.85 5H18.25C18.4667 5 18.6458 5.07083 18.7875 5.2125C18.9292 5.35417 19 5.53333 19 5.75V14.15C19 14.3667 18.9292 14.5458 18.7875 14.6875C18.6458 14.8292 18.4667 14.9 18.25 14.9C18.0333 14.9 17.8542 14.8292 17.7125 14.6875C17.5708 14.5458 17.5 14.3667 17.5 14.15V7.55L5.575 19.475C5.44167 19.6083 5.27084 19.675 5.0625 19.675C4.85417 19.675 4.675 19.6 4.525 19.45Z" fill="white"/>
</g>
</svg>
