<svg width="24" height="24" viewBox="0 0 24 24" fill="none" xmlns="http://www.w3.org/2000/svg">
<mask id="mask0_22_379" style="mask-type:alpha" maskUnits="userSpaceOnUse" x="0" y="0" width="24" height="24">
<rect width="24" height="24" fill="#D9D9D9"/>
</mask>
<g mask="url(#mask0_22_379)">
<path d="M9.825 16H14.15C14.35 16 14.5125 15.9167 14.6375 15.75C14.7625 15.5833 14.825 15.3917 14.825 15.175V14.075C14.825 13.875 14.75 13.7042 14.6 13.5625C14.45 13.4208 14.275 13.35 14.075 13.35C13.8583 13.35 13.6792 13.4208 13.5375 13.5625C13.3958 13.7042 13.325 13.8833 13.325 14.1V14.5H10.65V9.5H13.325V9.95C13.325 10.15 13.4 10.3208 13.55 10.4625C13.7 10.6042 13.875 10.675 14.075 10.675C14.2917 10.675 14.4708 10.6042 14.6125 10.4625C14.7542 10.3208 14.825 10.1417 14.825 9.925V8.85C14.825 8.61667 14.7625 8.41667 14.6375 8.25C14.5125 8.08333 14.35 8 14.15 8H9.825C9.625 8 9.4625 8.08333 9.3375 8.25C9.2125 8.41667 9.15 8.61667 9.15 8.85V15.175C9.15 15.3917 9.2125 15.5833 9.3375 15.75C9.4625 15.9167 9.625 16 9.825 16ZM12 22C10.5833 22 9.26667 21.7458 8.05 21.2375C6.83333 20.7292 5.775 20.025 4.875 19.125C3.975 18.225 3.27083 17.1667 2.7625 15.95C2.25417 14.7333 2 13.4167 2 12C2 10.6 2.25417 9.29167 2.7625 8.075C3.27083 6.85833 3.975 5.8 4.875 4.9C5.775 4 6.83333 3.29167 8.05 2.775C9.26667 2.25833 10.5833 2 12 2C13.4 2 14.7083 2.25833 15.925 2.775C17.1417 3.29167 18.2 4 19.1 4.9C20 5.8 20.7083 6.85833 21.225 8.075C21.7417 9.29167 22 10.6 22 12C22 13.4167 21.7417 14.7333 21.225 15.95C20.7083 17.1667 20 18.225 19.1 19.125C18.2 20.025 17.1417 20.7292 15.925 21.2375C14.7083 21.7458 13.4 22 12 22ZM12 20.5C14.4167 20.5 16.4375 19.6875 18.0625 18.0625C19.6875 16.4375 20.5 14.4167 20.5 12C20.5 9.58333 19.6875 7.5625 18.0625 5.9375C16.4375 4.3125 14.4167 3.5 12 3.5C9.58333 3.5 7.5625 4.3125 5.9375 5.9375C4.3125 7.5625 3.5 9.58333 3.5 12C3.5 14.4167 4.3125 16.4375 5.9375 18.0625C7.5625 19.6875 9.58333 20.5 12 20.5Z" fill="white"/>
</g>
</svg>
