<svg width="24" height="24" viewBox="0 0 24 24" fill="none" xmlns="http://www.w3.org/2000/svg">
<path d="M3 5.66667C3 5.1111 3.20271 4.65277 3.60811 4.29167C4.01351 3.93055 4.54055 3.75 5.18919 3.75C5.82626 3.75 6.34169 3.92777 6.73552 4.28333C7.14092 4.65 7.34363 5.12777 7.34363 5.71667C7.34363 6.25 7.14672 6.69443 6.7529 7.05C6.3475 7.41667 5.81467 7.6 5.15444 7.6H5.13707C4.49999 7.6 3.98456 7.41667 3.59073 7.05C3.19691 6.68333 3 6.22222 3 5.66667ZM3.22587 20.25V9.11667H7.08301V20.25H3.22587ZM9.22008 20.25H13.0772V14.0333C13.0772 13.6444 13.1236 13.3444 13.2162 13.1333C13.3784 12.7556 13.6245 12.4361 13.9546 12.175C14.2847 11.9139 14.6988 11.7833 15.1969 11.7833C16.4942 11.7833 17.1429 12.6222 17.1429 14.3V20.25H21V13.8667C21 12.2222 20.5946 10.975 19.7838 10.125C18.973 9.275 17.9016 8.85 16.5695 8.85C15.0753 8.85 13.9112 9.46667 13.0772 10.7V10.7333H13.0598L13.0772 10.7V9.11667H9.22008C9.24324 9.47222 9.25483 10.5778 9.25483 12.4333C9.25483 14.2889 9.24324 16.8944 9.22008 20.25Z" fill="white"/>
</svg>
