<svg width="90" height="20" viewBox="0 0 90 20" fill="none" xmlns="http://www.w3.org/2000/svg">
<path d="M0.256 18.92L5.568 5.72H7.856L2.544 18.92H0.256Z" fill="#F43F5E"/>
<path d="M14.4698 17L11.2698 5.08H13.6058L16.1178 15.24H15.5098L18.1338 5.08H20.3898L22.9978 15.24H22.3898L24.9018 5.08H27.2378L24.0378 17H21.5418L18.9018 7.112H19.6058L16.9658 17H14.4698ZM31.5583 17V5.08H33.7343V17H31.5583ZM38.099 17V15.288L43.875 7H38.435V5.08H46.643V6.792L40.883 15.08H46.803V17H38.099ZM50.1916 17L54.3036 5.08H57.1196L61.2316 17H58.8636L58.0156 14.44H53.4076L52.5436 17H50.1916ZM54.0316 12.52H57.3916L55.4076 6.584H56.0156L54.0316 12.52ZM65.5583 17V5.08H69.9903C70.8009 5.08 71.5156 5.22933 72.1343 5.528C72.7636 5.816 73.2543 6.24267 73.6063 6.808C73.9583 7.36267 74.1343 8.04 74.1343 8.84C74.1343 9.66133 73.9369 10.36 73.5423 10.936C73.1583 11.512 72.6356 11.9387 71.9743 12.216L74.7103 17H72.2463L69.3183 11.768L70.7263 12.6H67.7343V17H65.5583ZM67.7343 10.68H70.0223C70.4169 10.68 70.7583 10.6053 71.0463 10.456C71.3343 10.296 71.5583 10.0773 71.7183 9.8C71.8783 9.52267 71.9583 9.20267 71.9583 8.84C71.9583 8.46667 71.8783 8.14667 71.7183 7.88C71.5583 7.60267 71.3343 7.38933 71.0463 7.24C70.7583 7.08 70.4169 7 70.0223 7H67.7343V10.68ZM79.1364 17V5.08H83.0244C84.283 5.08 85.3764 5.336 86.3044 5.848C87.243 6.34933 87.9684 7.048 88.4804 7.944C88.9924 8.82933 89.2484 9.85867 89.2484 11.032C89.2484 12.1947 88.9924 13.2293 88.4804 14.136C87.9684 15.032 87.243 15.736 86.3044 16.248C85.3764 16.7493 84.283 17 83.0244 17H79.1364ZM81.3124 15.08H83.0724C83.883 15.08 84.5817 14.9147 85.1684 14.584C85.7657 14.2427 86.2297 13.7733 86.5604 13.176C86.891 12.568 87.0564 11.8533 87.0564 11.032C87.0564 10.2 86.891 9.48533 86.5604 8.888C86.2297 8.29067 85.7657 7.82667 85.1684 7.496C84.5817 7.16533 83.883 7 83.0724 7H81.3124V15.08Z" fill="white"/>
</svg>
