<svg width="24" height="24" viewBox="0 0 24 24" fill="none" xmlns="http://www.w3.org/2000/svg">
<mask id="mask0_22_413" style="mask-type:alpha" maskUnits="userSpaceOnUse" x="0" y="0" width="24" height="24">
<rect width="24" height="24" fill="#D9D9D9"/>
</mask>
<g mask="url(#mask0_22_413)">
<path d="M3.75 18C3.53333 18 3.35417 17.9292 3.2125 17.7875C3.07083 17.6458 3 17.4667 3 17.25C3 17.0333 3.07083 16.8542 3.2125 16.7125C3.35417 16.5708 3.53333 16.5 3.75 16.5H15.25C15.4667 16.5 15.6458 16.5708 15.7875 16.7125C15.9292 16.8542 16 17.0333 16 17.25C16 17.4667 15.9292 17.6458 15.7875 17.7875C15.6458 17.9292 15.4667 18 15.25 18H3.75ZM3.75 12.7C3.53333 12.7 3.35417 12.6292 3.2125 12.4875C3.07083 12.3458 3 12.1667 3 11.95C3 11.7333 3.07083 11.5542 3.2125 11.4125C3.35417 11.2708 3.53333 11.2 3.75 11.2H12.25C12.4667 11.2 12.6458 11.2708 12.7875 11.4125C12.9292 11.5542 13 11.7333 13 11.95C13 12.1667 12.9292 12.3458 12.7875 12.4875C12.6458 12.6292 12.4667 12.7 12.25 12.7H3.75ZM3.75 7.5C3.53333 7.5 3.35417 7.42917 3.2125 7.2875C3.07083 7.14583 3 6.96667 3 6.75C3 6.53333 3.07083 6.35417 3.2125 6.2125C3.35417 6.07083 3.53333 6 3.75 6H15.25C15.4667 6 15.6458 6.07083 15.7875 6.2125C15.9292 6.35417 16 6.53333 16 6.75C16 6.96667 15.9292 7.14583 15.7875 7.2875C15.6458 7.42917 15.4667 7.5 15.25 7.5H3.75ZM17.375 11.975L20.5 15.1C20.65 15.25 20.7208 15.425 20.7125 15.625C20.7042 15.825 20.625 16 20.475 16.15C20.325 16.3 20.1458 16.375 19.9375 16.375C19.7292 16.375 19.55 16.3 19.4 16.15L15.75 12.5C15.6 12.35 15.525 12.175 15.525 11.975C15.525 11.775 15.6 11.6 15.75 11.45L19.4 7.8C19.55 7.65 19.7292 7.575 19.9375 7.575C20.1458 7.575 20.325 7.65 20.475 7.8C20.625 7.95 20.7 8.12917 20.7 8.3375C20.7 8.54583 20.625 8.725 20.475 8.875L17.375 11.975Z" fill="white"/>
</g>
</svg>
