<svg width="24" height="24" viewBox="0 0 24 24" fill="none" xmlns="http://www.w3.org/2000/svg">
<mask id="mask0_22_378" style="mask-type:alpha" maskUnits="userSpaceOnUse" x="0" y="0" width="24" height="24">
<rect width="24" height="24" fill="#D9D9D9"/>
</mask>
<g mask="url(#mask0_22_378)">
<path d="M17 22C16.5833 22 16.2292 21.8542 15.9375 21.5625C15.6458 21.2708 15.5 20.9167 15.5 20.5V19.625L7.55 15.65C7.46667 15.6833 7.37917 15.7083 7.2875 15.725C7.19583 15.7417 7.1 15.75 7 15.75H4.5C4.08333 15.75 3.72917 15.6042 3.4375 15.3125C3.14583 15.0208 3 14.6667 3 14.25V11.75C3 11.3333 3.14583 10.9792 3.4375 10.6875C3.72917 10.3958 4.08333 10.25 4.5 10.25H7C7.06667 10.25 7.12917 10.2542 7.1875 10.2625C7.24583 10.2708 7.29167 10.2833 7.325 10.3L10.625 6.6C10.5917 6.51667 10.5625 6.42917 10.5375 6.3375C10.5125 6.24583 10.5 6.13333 10.5 6V3.5C10.5 3.08333 10.6458 2.72917 10.9375 2.4375C11.2292 2.14583 11.5833 2 12 2H14.5C14.9167 2 15.2708 2.14583 15.5625 2.4375C15.8542 2.72917 16 3.08333 16 3.5V6C16 6.41667 15.8542 6.77083 15.5625 7.0625C15.2708 7.35417 14.9167 7.5 14.5 7.5H11.85L8.425 11.325C8.44167 11.4083 8.45833 11.4792 8.475 11.5375C8.49167 11.5958 8.5 11.6667 8.5 11.75V14.475L15.5 17.95C15.5333 17.55 15.6875 17.2083 15.9625 16.925C16.2375 16.6417 16.5833 16.5 17 16.5H19.5C19.9167 16.5 20.2708 16.6458 20.5625 16.9375C20.8542 17.2292 21 17.5833 21 18V20.5C21 20.9167 20.8542 21.2708 20.5625 21.5625C20.2708 21.8542 19.9167 22 19.5 22H17ZM12 6H14.5V3.5H12V6ZM4.5 14.25H7V11.75H4.5V14.25ZM17 20.5H19.5V18H17V20.5Z" fill="#F43F5E"/>
</g>
</svg>
