<svg width="24" height="24" viewBox="0 0 24 24" fill="none" xmlns="http://www.w3.org/2000/svg">
<path d="M8.66082 19.125C15.4536 19.125 19.1683 13.6432 19.1683 8.88951C19.1683 8.73383 19.1651 8.57886 19.1579 8.42453C19.8807 7.91507 20.5045 7.28426 21 6.5617C20.3383 6.84827 19.6262 7.04114 18.8792 7.1281C19.6417 6.68275 20.227 5.9782 20.5032 5.13838C19.7783 5.55729 18.9852 5.8526 18.1582 6.01158C17.4843 5.31233 16.5248 4.875 15.4625 4.875C13.4231 4.875 11.7693 6.48603 11.7693 8.47188C11.7693 8.75421 11.8017 9.02873 11.8651 9.29214C8.79574 9.1417 6.07409 7.71022 4.25261 5.53356C3.92454 6.08256 3.75199 6.7065 3.75256 7.34167C3.75256 8.58976 4.40451 9.69154 5.39598 10.3361C4.80951 10.3187 4.23592 10.1644 3.72344 9.88619C3.72289 9.9013 3.72289 9.91601 3.72289 9.93215C3.72289 11.6743 4.99584 13.1289 6.68565 13.4585C6.36828 13.5427 6.04079 13.5853 5.71185 13.5851C5.4743 13.5851 5.24279 13.5623 5.01779 13.5203C5.48795 14.9496 6.85127 15.9897 8.46765 16.0188C7.20366 16.9839 5.61143 17.5587 3.8809 17.5587C3.58652 17.5589 3.29237 17.5423 3 17.5088C4.63441 18.5293 6.57512 19.1248 8.661 19.1248" fill="white"/>
</svg>
